# AST/ASF file generated using VICON BodyLanguage
# -----------------------------------------------
:version 1.10
:name VICON
:units
  mass 1.0
  length 0.45
  angle deg
:documentation
   .ast/.asf automatically generated from VICON data using
   VICON BodyBuilder and BodyLanguage model FoxedUp or BRILLIANT.MOD
:root
   order TX TY TZ RX RY RZ
   axis XYZ
   position 0 0 0  
   orientation 0 0 0 
:bonedata
  begin
     id 1 
     name lhipjoint
     direction 0.611823 -0.767273 0.19226 
     length 2.47422 
     axis 0 0 0  XYZ
  end
  begin
     id 2 
     name lfemur
     direction 0.34202 -0.939693 0  
     length 7.40835  
     axis 0 0 20  XYZ
    dof rx ry rz
    limits (-160.0 20.0)
           (-70.0 70.0)
           (-60.0 70.0)
  end
  begin
     id 3 
     name ltibia
     direction 0.34202 -0.939693 0   
     length 8.03679   
     axis 0 0 20   XYZ
    dof rx
    limits (-10.0 170.0)
  end
  begin
     id 4 
     name lfoot
     direction 0.0883598 -0.242766 0.966052   
     length 2.06694   
     axis -90 7.62852e-016 20   XYZ
    dof rx rz
    limits (-45.0 90.0)
           (-70.0 20.0)
  end
  begin
     id 5 
     name ltoes
     direction 1.53617e-011 -4.21699e-011 1   
     length 1.03711   
     axis -90 7.62852e-016 20   XYZ
    dof rx
    limits (-90.0 20.0)
  end
  begin
     id 6 
     name rhipjoint
     direction -0.590066 -0.783143 0.196236   
     length 2.42408  
     axis 0 0 0  XYZ 
  end
  begin
     id 7 
     name rfemur
     direction -0.34202 -0.939693 0   
     length 7.88987   
     axis 0 0 -20   XYZ
    dof rx ry rz
    limits (-160.0 20.0)
           (-70.0 70.0)
           (-70.0 60.0)
  end
  begin
     id 8 
     name rtibia
     direction -0.34202 -0.939693 0   
     length 7.87584   
     axis 0 0 -20   XYZ
    dof rx
    limits (-10.0 170.0)
 end
 begin
     id 9 
     name rfoot
     direction -0.130476 -0.358481 0.924374   
     length 2.21745  
     axis -90 -7.62852e-016 -20   XYZ
    dof rx rz
    limits (-45.0 90.0)
           (-20.0 70.0)
  end
  begin
     id 10 
     name rtoes
     direction 8.20695e-005 8.89091e-005 1   
     length 1.09536   
     axis -90 -7.62852e-016 -20   XYZ
    dof rx
    limits (-90.0 20.0)
  end
  begin
     id 11 
     name lowerback
     direction 0.00981224 0.999875 -0.0124197   
     length 1.94808   
     axis 0 0 0   XYZ
    dof rx ry rz
    limits (-20.0 45.0)
           (-30.0 30.0)
           (-30.0 30.0)
  end
  begin
     id 12 
     name upperback
     direction 0.038911 0.999194 0.00981686   
     length 1.94415   
     axis 0 0 0   XYZ
    dof rx ry rz
    limits (-20.0 45.0)
           (-30.0 30.0)
           (-30.0 30.0)
  end
  begin
     id 13 
     name thorax
     direction 0.0330692 0.999334 0.0154389   
     length 1.94117   
     axis 0 0 0   XYZ
    dof rx ry rz
    limits (-20.0 45.0)
           (-30.0 30.0)
           (-30.0 30.0)
  end
  begin
     id 14 
     name lowerneck
     direction -0.0374305 0.99415 0.10132   
     length 1.87291   
     axis 0 0 0   XYZ
    dof rx ry rz
    limits (-20.0 45.0)
           (-30.0 30.0)
           (-30.0 30.0)
  end
  begin
     id 15 
     name upperneck
     direction 0.0120692 0.985979 -0.166431   
     length 1.89248   
     axis 0 0 0   XYZ
    dof rx ry rz
    limits (-20.0 45.0)
           (-30.0 30.0)
           (-30.0 30.0)
  end
  begin
     id 16
     name head
     direction 0.00629908 0.997708 -0.06737  
     length 1.90559  
     axis 0 0 0   XYZ
    dof rx ry rz
    limits (-20.0 45.0)
           (-30.0 30.0)
           (-30.0 30.0)
  end
  begin
     id 17 
     name lclavicle
     direction 0.961536 0.27308 -0.0295863  
     length 3.52757  
     axis 0 0 0   XYZ
    dof ry rz
    limits (-20.0 10.0)
           (0.0 20.0)
  end
  begin
     id 18 
     name lhumerus
     direction 1 -4.48969e-011 2.61153e-029   
     length 5.14845   
     axis 180 -30 -90   XYZ
    dof rx ry rz
    limits (-60.0 90.0)
           (-90.0 90.0)
           (-90.0 90.0)
  end
  begin
     id 19
     name lradius
     direction 1 -4.4896e-011 -3.37549e-027   
     length 3.43674   
     axis 180 -30 -90   XYZ
    dof rx
    limits (-10.0 170.0)
  end
  begin
     id 20
     name lwrist
     direction 1 -4.48969e-011 2.56952e-028   
     length 1.71837   
     axis -5.12785e-016 90 90   XYZ
    dof ry
    limits (-180.0 0.0)
 end
  begin
     id 21 
     name lhand
     direction 1 -4.49094e-011 5.13905e-028   
     length 0.588709   
     axis -3.27915e-016 90 90   XYZ
    dof rx rz
    limits (-90.0 90.0)
           (-45.0 45.0)
  end
  begin
     id 22 
     name lfingers
     direction 1 -4.48821e-011 1.02781e-027   
     length 0.474633   
     axis -6.5583e-016 90 90   XYZ
    dof rx
    limits (0.0 90.0)
  end
  begin
     id 23
     name lthumb
     direction 0.707107 -6.34922e-011 0.707107   
     length 0.68148   
     axis -90 45 2.85299e-015   XYZ
    dof rx rz
    limits (-45.0 45.0)
           (-45.0 45.0)
  end
  begin
     id 24 
     name rclavicle
     direction -0.940964 0.333844 -0.0559866   
     length 3.55948  
     axis 0 0 0   XYZ 
    dof ry rz
    limits (-10.0 20.0)
           (-20.0 0.0)
  end
  begin
     id 25 
     name rhumerus
     direction -1 -4.48973e-011 3.15259e-027  
     length 5.42185   
     axis 180 30 90   XYZ
    dof rx ry rz
    limits (-90.0 60.0)
           (-90.0 90.0)
           (-90.0 90.0)
  end
  begin
     id 26 
     name rradius
     direction -1 -4.48954e-011 -2.56271e-027   
     length 3.51317   
     axis 180 30 90   XYZ
    dof rx
    limits (-10.0 170.0)
  end
  begin
     id 27 
     name rwrist
     direction -1 -4.48943e-011 2.56952e-028   
     length 1.75658   
     axis -5.12785e-016 -90 -90   XYZ
    dof ry
    limits (-180.0 0.0)
  end
  begin
     id 28
     name rhand
     direction -1 -4.4912e-011 5.13905e-028   
     length 0.663187   
     axis -3.27915e-016 -90 -90   XYZ
    dof rx rz
    limits (-90.0 90.0)
           (-45.0 45.0)
  end
  begin
     id 29
     name rfingers
     direction -1 -4.48914e-011 1.02781e-027   
     length 0.534679   
     axis -6.5583e-016 -90 -90   XYZ
    dof rx
    limits (0.0 90.0)
  end
  begin
     id 30
     name rthumb
     direction -0.707107 -6.35033e-011 0.707107   
     length 0.767695   
     axis -90 -45 -2.85299e-015   XYZ
    dof rx rz
    limits (-45.0 45.0)
           (-45.0 45.0)
  end
:hierarchy
  begin
    root lhipjoint rhipjoint lowerback
    lhipjoint lfemur
    lfemur ltibia
    ltibia lfoot
    lfoot ltoes
    rhipjoint rfemur
    rfemur rtibia
    rtibia rfoot
    rfoot rtoes
    lowerback upperback
    upperback thorax
    thorax lowerneck lclavicle rclavicle
    lowerneck upperneck
    upperneck head
    lclavicle lhumerus
    lhumerus lradius
    lradius lwrist
    lwrist lhand lthumb
    lhand lfingers
    rclavicle rhumerus
    rhumerus rradius
    rradius rwrist
    rwrist rhand rthumb
    rhand rfingers
  end

#!OML:ASF F:\VICON\USERDATA\INSTALL\Justin_a\Justin_a.ASF
:FULLY-SPECIFIED
:DEGREES
3230
root 7.52829 18.0559 -4.42178 -369.133 -95.4221 379.588
lowerback 7.65692 1.58822 -0.164947
upperback 2.40517 2.0744 3.71206
thorax -1.94873 0.982564 3.74182
lowerneck -11.1152 -3.80238 -5.04511
upperneck 36.4009 -6.92689 2.13191
head 14.6824 -3.87249 0.564634
rclavicle 7.95139e-016 -1.59028e-015
rhumerus -29.1514 -5.04398 -81.3426
rradius 37.8253
rwrist -0.776938
rhand -34.4471 15.8299
rfingers 7.12502
rthumb -7.61111 -14.0131
lclavicle 7.95139e-016 -1.59028e-015
lhumerus -36.1684 11.4055 84.7164
lradius 43.8519
lwrist 7.59173
lhand -18.3816 24.5848
lfingers 7.12502
lthumb 7.90205 54.4171
rfemur -19.2691 3.77879 25.6482
rtibia 33.8753
rfoot -26.346 -10.8072
rtoes -2.77526
lfemur -77.4438 -0.437902 -19.743
ltibia 82.2068
lfoot -5.93504 -10.3962
ltoes -2.89819
3231
root 7.44166 18.0419 -4.42896 -368.584 -95.535 379.092
lowerback 7.50992 1.60821 -0.175427
upperback 2.4256 2.0973 3.65945
thorax -1.84603 0.993788 3.69414
lowerneck -11.1735 -3.78443 -4.92999
upperneck 36.4079 -6.90956 2.08811
head 14.6905 -3.85402 0.527768
rclavicle 4.77083e-015 1.82882e-014
rhumerus -29.052 -5.07324 -81.4374
rradius 37.8092
rwrist -0.695095
rhand -34.2043 16.1175
rfingers 7.12502
rthumb -7.37675 -13.7339
lclavicle 4.77083e-015 1.82882e-014
lhumerus -36.2295 11.6092 84.5433
lradius 43.7529
lwrist 7.46688
lhand -18.4581 24.5072
lfingers 7.12502
lthumb 7.82823 54.3423
rfemur -19.0501 3.75024 25.6467
rtibia 33.9798
rfoot -26.5646 -10.8613
rtoes -3.75447
lfemur -76.9964 -0.433239 -19.6768
ltibia 82.3138
lfoot -5.24588 -10.9842
ltoes -2.29087
3232
root 7.35723 18.0271 -4.42861 -368.541 -95.6391 379.145
lowerback 7.46958 1.64458 -0.0985674
upperback 2.34867 2.15496 3.66649
thorax -1.90442 1.02442 3.6525
lowerneck -11.1114 -3.79488 -5.01812
upperneck 36.4156 -6.9261 2.13129
head 14.6871 -3.86963 0.559556
rclavicle 2.8625e-014 2.46493e-014
rhumerus -29.1548 -4.90152 -81.4548
rradius 37.9521
rwrist -0.683441
rhand -34.1248 15.773
rfingers 7.12502
rthumb -7.3 -14.0811
lclavicle 2.8625e-014 2.46493e-014
lhumerus -36.435 11.7175 84.5226
lradius 43.6423
lwrist 7.34085
lhand -18.5496 24.2828
lfingers 7.12502
lthumb 7.73992 54.1211
rfemur -18.9316 3.65655 25.6484
rtibia 34.1431
rfoot -26.9247 -10.6969
rtoes -3.77571
lfemur -76.572 -0.474766 -19.5771
ltibia 82.4552
lfoot -6.74557 -11.1323
ltoes -4.87688
3233
root 7.26922 18.0168 -4.43656 -368.288 -95.6781 378.964
lowerback 7.34901 1.62485 -0.202404
upperback 2.33292 2.12126 3.71601
thorax -1.85717 1.00777 3.76859
lowerneck -11.0852 -3.74142 -5.18954
upperneck 36.3683 -6.83332 2.23403
head 14.6669 -3.84027 0.647678
rclavicle 1.90833e-014 5.725e-014
rhumerus -29.115 -4.88678 -81.457
rradius 38.0226
rwrist -0.640848
rhand -34.2341 15.7801
rfingers 7.12502
rthumb -7.40553 -14.0703
lclavicle 1.90833e-014 5.725e-014
lhumerus -36.556 11.9132 84.5162
lradius 43.53
lwrist 7.29097
lhand -18.5865 24.4989
lfingers 7.12502
lthumb 7.70426 54.3386
rfemur -18.7492 3.63547 25.6452
rtibia 34.2874
rfoot -27.3266 -10.5562
rtoes -3.60479
lfemur -76.0352 -0.450823 -19.5899
ltibia 82.6088
lfoot -8.78983 -10.9297
ltoes -4.99292
3234
root 7.18192 18.0069 -4.44286 -368 -95.7539 378.728
lowerback 7.33525 1.63197 -0.30165
upperback 2.29358 2.12629 3.77281
thorax -1.89625 1.01123 3.8834
lowerneck -11.1199 -3.7275 -5.28502
upperneck 36.434 -6.78459 2.20381
head 14.7067 -3.83756 0.657523
rclavicle -1.66979e-014 -1.90833e-014
rhumerus -29.1492 -4.76657 -81.4682
rradius 38.1069
rwrist -0.77789
rhand -34.2991 15.9427
rfingers 7.12502
rthumb -7.46826 -13.9055
lclavicle -1.66979e-014 -1.90833e-014
lhumerus -36.657 12.2319 84.4994
lradius 43.3363
lwrist 7.20467
lhand -18.3413 24.6941
lfingers 7.12502
lthumb 7.94092 54.5249
rfemur -18.5465 3.42738 25.6422
rtibia 34.3886
rfoot -27.6761 -10.2101
rtoes -3.24786
lfemur -75.4741 -0.399784 -19.6271
ltibia 82.6899
lfoot -10.8725 -10.016
ltoes -5.54507
